<svg width="500" height="750" viewBox="0 0 500 750" fill="none" xmlns="http://www.w3.org/2000/svg">
<path d="M0 0H500V375V750H0V0Z" fill="#40E0D0"/>
<path d="M315 375C315 410.906 285.896 440 250 440C214.104 440 185 410.906 185 375C185 339.114 214.104 310 250 310C285.896 310 315 339.114 315 375ZM250 388.105C243.341 388.105 237.944 393.503 237.944 400.161C237.944 406.82 243.341 412.218 250 412.218C256.659 412.218 262.056 406.82 262.056 400.161C262.056 393.503 256.659 388.105 250 388.105ZM238.553 344.768L240.498 380.413C240.589 382.081 241.968 383.387 243.638 383.387H256.362C258.032 383.387 259.411 382.081 259.502 380.413L261.447 344.768C261.545 342.967 260.11 341.452 258.306 341.452H241.694C239.889 341.452 238.455 342.967 238.553 344.768V344.768Z" fill="#212F3C"/>
</svg>
