<svg width="500" height="750" viewBox="0 0 500 750" fill="none" xmlns="http://www.w3.org/2000/svg">
<path d="M0 0H500V375V750H0V0Z" fill="#AEB6BF"/>
<path d="M300 374C300 401.62 277.612 424 250 424C222.388 424 200 401.62 200 374C200 346.396 222.388 324 250 324C277.612 324 300 346.396 300 374ZM250 384.081C244.878 384.081 240.726 388.233 240.726 393.355C240.726 398.477 244.878 402.629 250 402.629C255.122 402.629 259.274 398.477 259.274 393.355C259.274 388.233 255.122 384.081 250 384.081ZM241.195 350.745L242.691 378.164C242.76 379.447 243.821 380.452 245.106 380.452H254.894C256.179 380.452 257.24 379.447 257.309 378.164L258.805 350.745C258.881 349.359 257.777 348.194 256.389 348.194H243.61C242.223 348.194 241.119 349.359 241.195 350.745V350.745Z" fill="#98A4B0"/>
</svg>
