<svg width="500" height="750" viewBox="0 0 500 750" fill="none" xmlns="http://www.w3.org/2000/svg">
<path d="M0 0H500V375V750H0V0Z" fill="#1B2631"/>
<path d="M250.165 360.588C252.437 360.588 254.283 358.74 254.283 356.47C254.283 354.2 252.437 352.353 250.165 352.353C247.893 352.353 246.047 354.2 246.047 356.47C246.047 358.741 247.893 360.588 250.165 360.588V360.588ZM241.692 386.661C239.85 385.319 237.279 385.732 235.942 387.57C234.591 389.429 235.029 392 236.855 393.32C238.692 394.659 241.274 394.243 242.605 392.411C243.956 390.553 243.518 387.981 241.692 386.661ZM250 372.941C248.866 372.941 247.941 373.864 247.941 375C247.941 376.136 248.866 377.059 250 377.059C251.134 377.059 252.059 376.136 252.059 375C252.059 373.864 251.134 372.941 250 372.941ZM285 375C285 355.701 269.298 340 250 340C230.702 340 215 355.701 215 375C215 394.299 230.702 410 250 410C269.298 410 285 394.299 285 375ZM250.165 348.235C254.705 348.235 258.4 351.929 258.4 356.47C258.4 361.012 254.705 364.706 250.165 364.706C245.625 364.706 241.929 361.012 241.929 356.47C241.93 351.929 245.625 348.235 250.165 348.235ZM224.711 366.73C226.117 362.401 230.754 360.035 235.086 361.441C239.404 362.846 241.777 367.5 240.373 371.817C238.968 376.147 234.33 378.513 229.999 377.107C225.68 375.702 223.308 371.047 224.711 366.73ZM245.935 394.832C243.273 398.496 238.119 399.327 234.434 396.652C230.754 393.985 229.933 388.831 232.613 385.149C235.288 381.461 240.454 380.658 244.113 383.33C247.794 385.997 248.614 391.15 245.935 394.832V394.832ZM243.824 375C243.824 371.594 246.594 368.824 250 368.824C253.406 368.824 256.176 371.594 256.176 375C256.176 378.406 253.406 381.176 250 381.176C246.594 381.176 243.824 378.406 243.824 375ZM269.189 391.28C268.474 395.825 264.19 398.84 259.767 398.124C255.266 397.411 252.209 393.191 252.923 388.702C253.635 384.174 257.893 381.146 262.345 381.856C266.861 382.574 269.901 386.805 269.189 391.28ZM270.331 377.107C266.001 378.512 261.363 376.149 259.956 371.817C258.556 367.514 260.893 362.856 265.244 361.441C269.597 360.033 274.217 362.414 275.619 366.731C277.022 371.047 274.65 375.702 270.331 377.107ZM236.457 370.547C237.157 368.387 235.974 366.059 233.815 365.357C231.7 364.666 229.339 365.799 228.628 368.001C227.928 370.16 229.11 372.489 231.27 373.19C233.462 373.906 235.767 372.68 236.457 370.547ZM261.702 385.923C259.454 385.57 257.347 387.095 256.989 389.347C256.631 391.595 258.168 393.703 260.411 394.056C262.62 394.418 264.761 392.911 265.123 390.634C265.48 388.397 263.957 386.283 261.702 385.923ZM266.515 365.357C264.349 366.061 263.167 368.386 263.873 370.545C264.57 372.707 266.894 373.893 269.06 373.19C271.22 372.489 272.402 370.16 271.702 368.001C270.999 365.824 268.658 364.657 266.515 365.357V365.357ZM282.941 405.882C280.585 405.882 278.359 405.037 276.572 403.625C275.549 404.575 274.477 405.467 273.356 406.305C275.954 408.617 279.347 410 282.941 410C284.079 410 285 409.079 285 407.941C285 406.803 284.079 405.882 282.941 405.882V405.882Z" fill="url(#paint0_linear)"/>
<defs>
<linearGradient id="paint0_linear" x1="250" y1="410" x2="250" y2="340" gradientUnits="userSpaceOnUse">
<stop stop-color="#FFA68D"/>
<stop offset="1" stop-color="#FD3A84"/>
</linearGradient>
</defs>
</svg>
