<svg width="501" height="750" viewBox="0 0 501 750" fill="none" xmlns="http://www.w3.org/2000/svg">
<path d="M0.5 0H500.5V375V750H0.5V0Z" fill="#212F3C"/>
<path d="M252 374C269.991 374 284.571 359.451 284.571 341.5C284.571 323.549 269.991 309 252 309C234.009 309 219.429 323.549 219.429 341.5C219.429 359.451 234.009 374 252 374ZM274.8 382.125H270.55C264.901 384.715 258.616 386.188 252 386.188C245.384 386.188 239.124 384.715 233.45 382.125H229.2C210.319 382.125 195 397.41 195 416.25V426.812C195 433.541 200.471 439 207.214 439H296.786C303.529 439 309 433.541 309 426.812V416.25C309 397.41 293.681 382.125 274.8 382.125Z" fill="#40E0D0"/>
</svg>
