<svg width="500" height="750" viewBox="0 0 500 750" fill="none" xmlns="http://www.w3.org/2000/svg">
<path d="M0 0H500V375V750H0V0Z" fill="#212F3C"/>
<path d="M249.5 374C263.23 374 274.357 362.809 274.357 349C274.357 335.191 263.23 324 249.5 324C235.77 324 224.643 335.191 224.643 349C224.643 362.809 235.77 374 249.5 374ZM266.9 380.25H263.657C259.346 382.242 254.549 383.375 249.5 383.375C244.451 383.375 239.674 382.242 235.343 380.25H232.1C217.691 380.25 206 392.008 206 406.5V414.625C206 419.801 210.175 424 215.321 424H283.679C288.825 424 293 419.801 293 414.625V406.5C293 392.008 281.309 380.25 266.9 380.25Z" fill="#34495C"/>
</svg>
