<svg width="500" height="750" viewBox="0 0 500 750" fill="none" xmlns="http://www.w3.org/2000/svg">
<path d="M0 0H500V375V750H0V0Z" fill="#40E0D0"/>
<path d="M251.5 374C269.491 374 284.071 359.451 284.071 341.5C284.071 323.549 269.491 309 251.5 309C233.509 309 218.929 323.549 218.929 341.5C218.929 359.451 233.509 374 251.5 374ZM274.3 382.125H270.05C264.401 384.715 258.116 386.188 251.5 386.188C244.884 386.188 238.624 384.715 232.95 382.125H228.7C209.819 382.125 194.5 397.41 194.5 416.25V426.812C194.5 433.541 199.971 439 206.714 439H296.286C303.029 439 308.5 433.541 308.5 426.812V416.25C308.5 397.41 293.181 382.125 274.3 382.125Z" fill="#212F3C"/>
</svg>
